<svg id="Capa_1" enable-background="new 0 0 499.999 499.999" height="512" viewBox="0 0 499.999 499.999" width="512" xmlns="http://www.w3.org/2000/svg"><path d="m250 0c-137.848 0-250 112.152-250 250s112.152 250 250 250 250-112.152 250-250-112.153-250-250-250zm0 468.749c-120.62 0-218.75-98.129-218.75-218.75s98.129-218.749 218.75-218.749 218.75 98.129 218.75 218.75-98.13 218.749-218.75 218.749z"/><path d="m250 156.25c-51.697 0-93.75 42.053-93.75 93.75s42.053 93.75 93.75 93.75 93.75-42.053 93.75-93.75-42.054-93.75-93.75-93.75zm0 156.249c-34.47 0-62.5-28.03-62.5-62.5s28.03-62.5 62.5-62.5 62.5 28.03 62.5 62.5c-.001 34.47-28.031 62.5-62.5 62.5z"/><path d="m250 218.75c-17.227 0-31.25 14.023-31.25 31.25s14.023 31.25 31.25 31.25 31.25-14.023 31.25-31.25-14.023-31.25-31.25-31.25z"/><path d="m250 62.5c-56.137 0-108.856 24.857-144.638 68.176l24.109 19.897c29.816-36.117 73.745-56.824 120.529-56.824-.001.001-.001-31.249 0-31.249z"/></svg>