<svg version="1.1" xmlns="http://www.w3.org/2000/svg" xmlns:xlink="http://www.w3.org/1999/xlink" width="63" height="63"><defs/><g><path fill="rgb(188,222,41)" stroke="none" paint-order="stroke fill markers" fill-rule="evenodd" d=" M 31.999959349632263 61.999746918678284 C 15.43144166469574 61.999746918678284 1.9998449087142944 48.56816565990448 1.9998449087142944 31.999753832817078 C 1.9998449087142944 15.43111538887024 15.43144166469574 1.9995341300964355 31.999959349632263 1.9995341300964355 C 48.56836676597595 1.9995341300964355 61.9999635219574 15.43111538887024 61.9999635219574 31.999753832817078 C 61.9999635219574 48.56816565990448 48.56836676597595 61.999746918678284 31.999959349632263 61.999746918678284 Z M 31.999959349632263 3.999654531478882 C 16.536002159118652 3.999654531478882 3.9998966455459595 16.53587257862091 3.9998966455459595 31.999753832817078 C 3.9998966455459595 47.463635087013245 16.536002159118652 59.99985313415527 31.999959349632263 59.99985313415527 C 47.463916540145874 59.99985313415527 59.99991178512573 47.463635087013245 59.99991178512573 31.999753832817078 C 59.99991178512573 16.53587257862091 47.463916540145874 3.999654531478882 31.999959349632263 3.999654531478882 Z M 31.999959349632263 41.999449372291565 C 26.477046608924866 41.999449372291565 21.999921202659607 37.52263331413269 21.999921202659607 31.999753832817078 C 21.999921202659607 26.47664773464203 26.477046608924866 21.999831676483154 31.999959349632263 21.999831676483154 C 37.522761821746826 21.999831676483154 41.999887228012085 26.47664773464203 41.999887228012085 31.999753832817078 C 41.999887228012085 37.52263331413269 37.522761821746826 41.999449372291565 31.999959349632263 41.999449372291565 Z M 31.999959349632263 23.999725461006165 C 27.581717371940613 23.999725461006165 23.999972939491272 27.581631541252136 23.999972939491272 31.999753832817078 C 23.999972939491272 36.418102741241455 27.581717371940613 39.99978220462799 31.999959349632263 39.99978220462799 C 36.418201327323914 39.99978220462799 39.999945759773254 36.418102741241455 39.999945759773254 31.999753832817078 C 39.999945759773254 27.581631541252136 36.418201327323914 23.999725461006165 31.999959349632263 23.999725461006165 Z"/></g></svg>