<svg version="1.1" xmlns="http://www.w3.org/2000/svg" xmlns:xlink="http://www.w3.org/1999/xlink" width="76" height="49"><defs/><g><path fill="rgb(184,220,30)" stroke="none" paint-order="stroke fill markers" fill-rule="evenodd" d=" M 74.9842141866684 35.35575270652771 C 74.9842141866684 34.247143030166626 74.34366393089294 33.305776596069336 73.4360431432724 32.84846377372742 C 73.4360431432724 32.84846377372742 73.4360431432724 15.595215797424316 73.4360431432724 15.595215797424316 C 73.63706278800964 15.515899896621704 73.77203154563904 15.319423079490662 73.77203154563904 15.102550745010376 C 73.77203154563904 14.87366771697998 73.62581539154053 14.680136919021606 73.42435467243195 14.609659075737 C 73.42435467243195 14.609659075737 38.56349039077759 2.055085062980652 38.56349039077759 2.055085062980652 C 38.126826763153076 1.881723165512085 37.63260293006897 1.881723165512085 37.18469190597534 2.055085062980652 C 37.18469190597534 2.055085062980652 2.334633946418762 14.609659075737 2.334633946418762 14.609659075737 C 2.1223669052124023 14.680136919021606 1.9872878789901733 14.87366771697998 1.9872878789901733 15.102550745010376 C 1.9872878789901733 15.319423079490662 2.1106784343719482 15.515899896621704 2.3118083477020264 15.595215797424316 C 2.3118083477020264 15.595215797424316 37.12702143192291 29.434707403182983 37.12702143192291 29.434707403182983 C 37.6096670627594 29.62801158428192 38.14965236186981 29.62801158428192 38.63240826129913 29.434707403182983 C 38.63240826129913 29.434707403182983 71.03494453430176 16.545193672180176 71.03494453430176 16.545193672180176 C 71.03494453430176 16.545193672180176 71.03494453430176 32.84846377372742 71.03494453430176 32.84846377372742 C 70.12721347808838 33.305776596069336 69.48666322231293 34.247143030166626 69.48666322231293 35.34714126586914 C 69.48666322231293 36.50243401527405 70.17043876647949 37.4995481967926 71.15833508968353 37.93351948261261 C 70.17043876647949 39.915963768959045 69.48666322231293 43.995293855667114 69.48666322231293 45.16282391548157 C 69.48666322231293 46.711296916007996 70.72167146205902 47.96924710273743 72.23543870449066 47.96924710273743 C 73.7492059469223 47.96924710273743 74.9842141866684 46.711296916007996 74.9842141866684 45.16282391548157 C 74.9842141866684 43.995293855667114 74.30076944828033 39.915963768959045 73.31265258789062 37.93351948261261 C 74.30076944828033 37.51110565662384 74.9842141866684 36.50243401527405 74.9842141866684 35.35575270652771 C 74.9842141866684 35.35575270652771 74.9842141866684 35.35575270652771 74.9842141866684 35.35575270652771 Z M 74.9842141866684 35.35575270652771 C 74.9842141866684 35.35575270652771 74.9842141866684 35.35575270652771 74.9842141866684 35.35575270652771 M 13.217923521995544 22.57206904888153 C 13.217923521995544 26.548741698265076 13.217923521995544 31.232232332229614 13.217923521995544 31.977121949195862 C 13.217923521995544 39.37956166267395 24.1471951007843 45.41482186317444 37.87971484661102 45.79327201843262 C 51.612234592437744 45.41482186317444 62.52992796897888 39.38817310333252 62.52992796897888 31.977121949195862 C 62.52992796897888 31.232232332229614 62.52992796897888 26.548741698265076 62.5415061712265 22.57206904888153 C 62.5415061712265 22.57206904888153 38.63240826129913 32.06822192668915 38.63240826129913 32.06822192668915 C 38.14965236186981 32.264472126960754 37.6096670627594 32.264472126960754 37.12702143192291 32.06822192668915 C 37.12702143192291 32.06822192668915 13.217923521995544 22.57206904888153 13.217923521995544 22.57206904888153 Z M 13.217923521995544 22.57206904888153 C 13.217923521995544 22.57206904888153 13.217923521995544 22.57206904888153 13.217923521995544 22.57206904888153"/></g></svg>