<svg version="1.1" xmlns="http://www.w3.org/2000/svg" xmlns:xlink="http://www.w3.org/1999/xlink" width="34" height="36"><defs/><g><path fill="rgb(255,255,255)" stroke="none" paint-order="stroke fill markers" fill-rule="evenodd" d=" M 32.999804854393005 2.9992438554763794 C 32.999804854393005 2.9992438554763794 32.999804854393005 22.999314785003662 32.999804854393005 22.999314785003662 C 32.999804854393005 26.312906503677368 30.089706420898438 28.999449372291565 26.499802112579346 28.999449372291565 C 22.91000807285309 28.999449372291565 19.999799370765686 26.312906503677368 19.999799370765686 22.999314785003662 C 19.999799370765686 19.68549644947052 22.91000807285309 16.999406814575195 26.499802112579346 16.999406814575195 C 28.24987494945526 16.999406814575195 29.831236839294434 17.64503824710846 30.999863386154175 18.683396697044373 C 30.999863386154175 18.683396697044373 30.999863386154175 9.46303653717041 30.999863386154175 9.46303653717041 C 30.999863386154175 9.46303653717041 14.999890565872192 13.859176993370056 14.999890565872192 13.859176993370056 C 14.999890565872192 13.859176993370056 14.999890565872192 26.99932897090912 14.999890565872192 26.99932897090912 C 14.999890565872192 26.99932897090912 14.601820945739746 26.99932897090912 14.601820945739746 26.99932897090912 C 14.843860507011414 27.627737522125244 14.999890565872192 28.294217705726624 14.999890565872192 28.999449372291565 C 14.999890565872192 32.31304109096527 12.08968186378479 34.99935734272003 8.499887824058533 34.99935734272003 C 4.909983515739441 34.99935734272003 1.999885082244873 32.31304109096527 1.999885082244873 28.999449372291565 C 1.999885082244873 25.685404419898987 4.909983515739441 22.999314785003662 8.499887824058533 22.999314785003662 C 10.249850392341614 22.999314785003662 11.83132255077362 23.645172834396362 12.999838829040527 24.683531284332275 C 12.999838829040527 24.683531284332275 12.999838829040527 5.999197840690613 12.999838829040527 5.999197840690613 C 12.999838829040527 5.999197840690613 14.299133658409119 5.999197840690613 14.299133658409119 5.999197840690613 C 14.299133658409119 5.999197840690613 32.488930463790894 1.0016162395477295 32.488930463790894 1.0016162395477295 C 32.488930463790894 1.0016162395477295 32.98932933807373 2.9163020849227905 32.98932933807373 2.9163020849227905 C 32.98932933807373 2.9163020849227905 32.999804854393005 2.9992438554763794 32.999804854393005 2.9992438554763794 M 8.499887824058533 24.99943518638611 C 6.0145440101623535 24.99943518638611 3.9998265504837036 26.790161609649658 3.9998265504837036 28.999449372291565 C 3.9998265504837036 31.2082839012146 6.0145440101623535 32.999236941337585 8.499887824058533 32.999236941337585 C 10.985121369361877 32.999236941337585 12.999838829040527 31.2082839012146 12.999838829040527 28.999449372291565 C 12.999838829040527 26.790161609649658 10.985121369361877 24.99943518638611 8.499887824058533 24.99943518638611 Z M 26.499802112579346 18.999300599098206 C 24.014568567276 18.999300599098206 21.99985110759735 20.79025363922119 21.99985110759735 22.999314785003662 C 21.99985110759735 25.208375930786133 24.014568567276 26.99932897090912 26.499802112579346 26.99932897090912 C 28.985145926475525 26.99932897090912 30.999863386154175 25.208375930786133 30.999863386154175 22.999314785003662 C 30.999863386154175 20.79025363922119 28.985145926475525 18.999300599098206 26.499802112579346 18.999300599098206 Z M 14.999890565872192 7.859042406082153 C 14.999890565872192 7.859042406082153 14.999890565872192 11.806708097457886 14.999890565872192 11.806708097457886 C 14.999890565872192 11.806708097457886 30.999863386154175 7.410794258117676 30.999863386154175 7.410794258117676 C 30.999863386154175 7.410794258117676 30.999863386154175 3.4631285667419434 30.999863386154175 3.4631285667419434 C 30.999863386154175 3.4631285667419434 14.999890565872192 7.859042406082153 14.999890565872192 7.859042406082153 Z"/></g></svg>