<svg version="1.1" xmlns="http://www.w3.org/2000/svg" xmlns:xlink="http://www.w3.org/1999/xlink" width="73" height="57"><defs/><g><path fill="rgb(184,220,30)" stroke="none" paint-order="stroke fill markers" fill-rule="evenodd" d=" M 69.99996554851532 46.99925112724304 C 69.99996554851532 46.99925112724304 67.99991381168365 46.99925112724304 67.99991381168365 46.99925112724304 C 67.99991381168365 46.99925112724304 67.99991381168365 48.99937152862549 67.99991381168365 48.99937152862549 C 67.99991381168365 48.99937152862549 67.99991381168365 50.9992653131485 67.99991381168365 50.9992653131485 C 67.99991381168365 50.9992653131485 65.99986207485199 50.9992653131485 65.99986207485199 50.9992653131485 C 65.99986207485199 50.9992653131485 63.99992060661316 50.9992653131485 63.99992060661316 50.9992653131485 C 63.99992060661316 50.9992653131485 63.99992060661316 53.99921929836273 63.99992060661316 53.99921929836273 C 63.99992060661316 53.99921929836273 63.99992060661316 55.99933969974518 63.99992060661316 55.99933969974518 C 63.99992060661316 55.99933969974518 61.999868869781494 55.99933969974518 61.999868869781494 55.99933969974518 C 61.999868869781494 55.99933969974518 11.999898672103882 55.99933969974518 11.999898672103882 55.99933969974518 C 11.999898672103882 55.99933969974518 9.999957203865051 55.99933969974518 9.999957203865051 55.99933969974518 C 9.999957203865051 55.99933969974518 9.999957203865051 53.99921929836273 9.999957203865051 53.99921929836273 C 9.999957203865051 53.99921929836273 9.999957203865051 50.9992653131485 9.999957203865051 50.9992653131485 C 9.999957203865051 50.9992653131485 7.999905467033386 50.9992653131485 7.999905467033386 50.9992653131485 C 7.999905467033386 50.9992653131485 5.999963998794556 50.9992653131485 5.999963998794556 50.9992653131485 C 5.999963998794556 50.9992653131485 5.999963998794556 48.99937152862549 5.999963998794556 48.99937152862549 C 5.999963998794556 48.99937152862549 5.999963998794556 46.99925112724304 5.999963998794556 46.99925112724304 C 5.999963998794556 46.99925112724304 3.9999122619628906 46.99925112724304 3.9999122619628906 46.99925112724304 C 3.9999122619628906 46.99925112724304 1.99997079372406 46.99925112724304 1.99997079372406 46.99925112724304 C 1.99997079372406 46.99925112724304 1.99997079372406 44.99935734272003 1.99997079372406 44.99935734272003 C 1.99997079372406 44.99935734272003 1.99997079372406 12.99924385547638 1.99997079372406 12.99924385547638 C 1.99997079372406 12.99924385547638 1.99997079372406 10.99935007095337 1.99997079372406 10.99935007095337 C 1.99997079372406 10.99935007095337 3.9999122619628906 10.99935007095337 3.9999122619628906 10.99935007095337 C 3.9999122619628906 10.99935007095337 5.999963998794556 10.99935007095337 5.999963998794556 10.99935007095337 C 5.999963998794556 10.99935007095337 5.999963998794556 8.999229669570923 5.999963998794556 8.999229669570923 C 5.999963998794556 8.999229669570923 5.999963998794556 6.999335885047913 5.999963998794556 6.999335885047913 C 5.999963998794556 6.999335885047913 7.999905467033386 6.999335885047913 7.999905467033386 6.999335885047913 C 7.999905467033386 6.999335885047913 9.999957203865051 6.999335885047913 9.999957203865051 6.999335885047913 C 9.999957203865051 6.999335885047913 9.999957203865051 3.999381899833679 9.999957203865051 3.999381899833679 C 9.999957203865051 3.999381899833679 9.999957203865051 1.999261498451233 9.999957203865051 1.999261498451233 C 9.999957203865051 1.999261498451233 11.999898672103882 1.999261498451233 11.999898672103882 1.999261498451233 C 11.999898672103882 1.999261498451233 61.999868869781494 1.999261498451233 61.999868869781494 1.999261498451233 C 61.999868869781494 1.999261498451233 63.99992060661316 1.999261498451233 63.99992060661316 1.999261498451233 C 63.99992060661316 1.999261498451233 63.99992060661316 3.999381899833679 63.99992060661316 3.999381899833679 C 63.99992060661316 3.999381899833679 63.99992060661316 6.999335885047913 63.99992060661316 6.999335885047913 C 63.99992060661316 6.999335885047913 65.99986207485199 6.999335885047913 65.99986207485199 6.999335885047913 C 65.99986207485199 6.999335885047913 67.99991381168365 6.999335885047913 67.99991381168365 6.999335885047913 C 67.99991381168365 6.999335885047913 67.99991381168365 8.999229669570923 67.99991381168365 8.999229669570923 C 67.99991381168365 8.999229669570923 67.99991381168365 10.99935007095337 67.99991381168365 10.99935007095337 C 67.99991381168365 10.99935007095337 69.99996554851532 10.99935007095337 69.99996554851532 10.99935007095337 C 69.99996554851532 10.99935007095337 71.99990701675415 10.99935007095337 71.99990701675415 10.99935007095337 C 71.99990701675415 10.99935007095337 71.99990701675415 12.99924385547638 71.99990701675415 12.99924385547638 C 71.99990701675415 12.99924385547638 71.99990701675415 44.99935734272003 71.99990701675415 44.99935734272003 C 71.99990701675415 44.99935734272003 71.99990701675415 46.99925112724304 71.99990701675415 46.99925112724304 C 71.99990701675415 46.99925112724304 69.99996554851532 46.99925112724304 69.99996554851532 46.99925112724304 Z M 5.999963998794556 12.99924385547638 C 5.999963998794556 12.99924385547638 3.9999122619628906 12.99924385547638 3.9999122619628906 12.99924385547638 C 3.9999122619628906 12.99924385547638 3.9999122619628906 44.99935734272003 3.9999122619628906 44.99935734272003 C 3.9999122619628906 44.99935734272003 5.999963998794556 44.99935734272003 5.999963998794556 44.99935734272003 C 5.999963998794556 44.99935734272003 5.999963998794556 12.99924385547638 5.999963998794556 12.99924385547638 Z M 7.999905467033386 8.999229669570923 C 7.999905467033386 8.999229669570923 7.999905467033386 10.99935007095337 7.999905467033386 10.99935007095337 C 7.999905467033386 10.99935007095337 7.999905467033386 12.99924385547638 7.999905467033386 12.99924385547638 C 7.999905467033386 12.99924385547638 7.999905467033386 44.99935734272003 7.999905467033386 44.99935734272003 C 7.999905467033386 44.99935734272003 7.999905467033386 46.99925112724304 7.999905467033386 46.99925112724304 C 7.999905467033386 46.99925112724304 7.999905467033386 48.99937152862549 7.999905467033386 48.99937152862549 C 7.999905467033386 48.99937152862549 9.999957203865051 48.99937152862549 9.999957203865051 48.99937152862549 C 9.999957203865051 48.99937152862549 9.999957203865051 8.999229669570923 9.999957203865051 8.999229669570923 C 9.999957203865051 8.999229669570923 7.999905467033386 8.999229669570923 7.999905467033386 8.999229669570923 Z M 61.999868869781494 50.9992653131485 C 61.999868869781494 50.9992653131485 61.999868869781494 48.99937152862549 61.999868869781494 48.99937152862549 C 61.999868869781494 48.99937152862549 61.999868869781494 8.999229669570923 61.999868869781494 8.999229669570923 C 61.999868869781494 8.999229669570923 61.999868869781494 6.999335885047913 61.999868869781494 6.999335885047913 C 61.999868869781494 6.999335885047913 61.999868869781494 3.999381899833679 61.999868869781494 3.999381899833679 C 61.999868869781494 3.999381899833679 11.999898672103882 3.999381899833679 11.999898672103882 3.999381899833679 C 11.999898672103882 3.999381899833679 11.999898672103882 6.999335885047913 11.999898672103882 6.999335885047913 C 11.999898672103882 6.999335885047913 11.999898672103882 8.999229669570923 11.999898672103882 8.999229669570923 C 11.999898672103882 8.999229669570923 11.999898672103882 48.99937152862549 11.999898672103882 48.99937152862549 C 11.999898672103882 48.99937152862549 11.999898672103882 50.9992653131485 11.999898672103882 50.9992653131485 C 11.999898672103882 50.9992653131485 11.999898672103882 53.99921929836273 11.999898672103882 53.99921929836273 C 11.999898672103882 53.99921929836273 61.999868869781494 53.99921929836273 61.999868869781494 53.99921929836273 C 61.999868869781494 53.99921929836273 61.999868869781494 50.9992653131485 61.999868869781494 50.9992653131485 Z M 65.99986207485199 46.99925112724304 C 65.99986207485199 46.99925112724304 65.99986207485199 44.99935734272003 65.99986207485199 44.99935734272003 C 65.99986207485199 44.99935734272003 65.99986207485199 12.99924385547638 65.99986207485199 12.99924385547638 C 65.99986207485199 12.99924385547638 65.99986207485199 10.99935007095337 65.99986207485199 10.99935007095337 C 65.99986207485199 10.99935007095337 65.99986207485199 8.999229669570923 65.99986207485199 8.999229669570923 C 65.99986207485199 8.999229669570923 63.99992060661316 8.999229669570923 63.99992060661316 8.999229669570923 C 63.99992060661316 8.999229669570923 63.99992060661316 48.99937152862549 63.99992060661316 48.99937152862549 C 63.99992060661316 48.99937152862549 65.99986207485199 48.99937152862549 65.99986207485199 48.99937152862549 C 65.99986207485199 48.99937152862549 65.99986207485199 46.99925112724304 65.99986207485199 46.99925112724304 Z M 69.99996554851532 12.99924385547638 C 69.99996554851532 12.99924385547638 67.99991381168365 12.99924385547638 67.99991381168365 12.99924385547638 C 67.99991381168365 12.99924385547638 67.99991381168365 44.99935734272003 67.99991381168365 44.99935734272003 C 67.99991381168365 44.99935734272003 69.99996554851532 44.99935734272003 69.99996554851532 44.99935734272003 C 69.99996554851532 44.99935734272003 69.99996554851532 12.99924385547638 69.99996554851532 12.99924385547638 Z"/></g></svg>