<svg version="1.1" xmlns="http://www.w3.org/2000/svg" xmlns:xlink="http://www.w3.org/1999/xlink" width="51" height="51"><defs/><g><path fill="rgb(255,255,255)" stroke="none" paint-order="stroke fill markers" fill-rule="evenodd" d=" M 25.99984908103943 49.999385714530945 C 25.99984908103943 49.999385714530945 25.99984908103943 47.99994516372681 25.99984908103943 47.99994516372681 C 38.150235056877136 47.99994516372681 47.999977111816406 38.15004336833954 47.999977111816406 25.999753832817078 C 47.999977111816406 25.999753832817078 49.9998083114624 25.999753832817078 49.9998083114624 25.999753832817078 C 49.9998083114624 39.2541207075119 39.25479555130005 49.999385714530945 25.99984908103943 49.999385714530945 Z M 29.050429701805115 43.00077724456787 C 29.050429701805115 43.00077724456787 29.050429701805115 40.94558894634247 29.050429701805115 40.94558894634247 C 35.02621555328369 39.732282280921936 39.73280990123749 35.02635657787323 40.94587469100952 29.050243377685547 C 40.94587469100952 29.050243377685547 43.00072991847992 29.050243377685547 43.00072991847992 29.050243377685547 C 41.73484647274017 36.147430181503296 36.14786767959595 41.73444223403931 29.050429701805115 43.00077724456787 Z M 3.99994158744812 25.999753832817078 C 3.99994158744812 25.999753832817078 1.999889850616455 25.999753832817078 1.999889850616455 25.999753832817078 C 1.999889850616455 12.744933724403381 12.745012879371643 1.9996687173843384 25.99984908103943 1.9996687173843384 C 25.99984908103943 1.9996687173843384 25.99984908103943 3.9997891187667847 25.99984908103943 3.9997891187667847 C 13.84968364238739 3.9997891187667847 3.99994158744812 13.84923768043518 3.99994158744812 25.999753832817078 Z M 22.949378728866577 8.99895703792572 C 22.949378728866577 8.99895703792572 22.949378728866577 11.053692102432251 22.949378728866577 11.053692102432251 C 16.973482608795166 12.266772150993347 12.266998529434204 16.97337770462036 11.053823471069336 22.948811054229736 C 11.053823471069336 22.948811054229736 8.998968243598938 22.948811054229736 8.998968243598938 22.948811054229736 C 10.264961957931519 15.851850867271423 15.851940751075745 10.264838814735413 22.949378728866577 8.99895703792572 Z"/></g></svg>