<svg version="1.1" xmlns="http://www.w3.org/2000/svg" xmlns:xlink="http://www.w3.org/1999/xlink" width="57" height="57"><defs/><g><path fill="rgb(188,222,41)" stroke="none" paint-order="stroke fill markers" fill-rule="evenodd" d=" M 55.99995839595795 48.99937152862549 C 55.99995839595795 48.99937152862549 55.99995839595795 50.9992653131485 55.99995839595795 50.9992653131485 C 55.99995839595795 50.9992653131485 55.99984812736511 50.9992653131485 55.99984812736511 50.9992653131485 C 55.99984812736511 50.9992653131485 55.99984812736511 53.99921929836273 55.99984812736511 53.99921929836273 C 55.99984812736511 53.99921929836273 55.99984812736511 55.99933969974518 55.99984812736511 55.99933969974518 C 55.99984812736511 55.99933969974518 53.99979639053345 55.99933969974518 53.99979639053345 55.99933969974518 C 53.99979639053345 55.99933969974518 3.999826192855835 55.99933969974518 3.999826192855835 55.99933969974518 C 3.999826192855835 55.99933969974518 1.9998847246170044 55.99933969974518 1.9998847246170044 55.99933969974518 C 1.9998847246170044 55.99933969974518 1.9998847246170044 54.99973273277283 1.9998847246170044 54.99973273277283 C 1.9998847246170044 54.99973273277283 1.9999949932098389 54.99973273277283 1.9999949932098389 54.99973273277283 C 1.9999949932098389 54.99973273277283 1.9999949932098389 1.999261498451233 1.9999949932098389 1.999261498451233 C 1.9999949932098389 1.999261498451233 3.999826192855835 1.999261498451233 3.999826192855835 1.999261498451233 C 3.999826192855835 1.999261498451233 53.99979639053345 1.999261498451233 53.99979639053345 1.999261498451233 C 53.99979639053345 1.999261498451233 55.99984812736511 1.999261498451233 55.99984812736511 1.999261498451233 C 55.99984812736511 1.999261498451233 55.99984812736511 3.999381899833679 55.99984812736511 3.999381899833679 C 55.99984812736511 3.999381899833679 55.99984812736511 6.999335885047913 55.99984812736511 6.999335885047913 C 55.99984812736511 6.999335885047913 55.99995839595795 6.999335885047913 55.99995839595795 6.999335885047913 C 55.99995839595795 6.999335885047913 55.99995839595795 8.999229669570923 55.99995839595795 8.999229669570923 C 55.99995839595795 8.999229669570923 55.99984812736511 8.999229669570923 55.99984812736511 8.999229669570923 C 55.99984812736511 8.999229669570923 55.99984812736511 48.99937152862549 55.99984812736511 48.99937152862549 C 55.99984812736511 48.99937152862549 55.99995839595795 48.99937152862549 55.99995839595795 48.99937152862549 Z M 53.99979639053345 50.9992653131485 C 53.99979639053345 50.9992653131485 53.99979639053345 48.99937152862549 53.99979639053345 48.99937152862549 C 53.99979639053345 48.99937152862549 53.99979639053345 8.999229669570923 53.99979639053345 8.999229669570923 C 53.99979639053345 8.999229669570923 53.99979639053345 6.999335885047913 53.99979639053345 6.999335885047913 C 53.99979639053345 6.999335885047913 53.99979639053345 3.999381899833679 53.99979639053345 3.999381899833679 C 53.99979639053345 3.999381899833679 3.999826192855835 3.999381899833679 3.999826192855835 3.999381899833679 C 3.999826192855835 3.999381899833679 3.999826192855835 6.999335885047913 3.999826192855835 6.999335885047913 C 3.999826192855835 6.999335885047913 3.999826192855835 8.999229669570923 3.999826192855835 8.999229669570923 C 3.999826192855835 8.999229669570923 3.999826192855835 48.99937152862549 3.999826192855835 48.99937152862549 C 3.999826192855835 48.99937152862549 3.999826192855835 50.9992653131485 3.999826192855835 50.9992653131485 C 3.999826192855835 50.9992653131485 3.999826192855835 53.99921929836273 3.999826192855835 53.99921929836273 C 3.999826192855835 53.99921929836273 53.99979639053345 53.99921929836273 53.99979639053345 53.99921929836273 C 53.99979639053345 53.99921929836273 53.99979639053345 50.9992653131485 53.99979639053345 50.9992653131485 Z"/></g></svg>