<svg version="1.1" xmlns="http://www.w3.org/2000/svg" xmlns:xlink="http://www.w3.org/1999/xlink" width="41" height="37"><defs/><g><path fill="rgb(255,255,255)" stroke="none" paint-order="stroke fill markers" fill-rule="evenodd" d=" M 39.999971985816956 1.9996368885040283 C 39.999971985816956 1.9996368885040283 39.99986171722412 27.999162554740906 39.99986171722412 27.999162554740906 C 39.99986171722412 27.999162554740906 39.99986171722412 29.999282956123352 39.99986171722412 29.999282956123352 C 39.99986171722412 33.31287467479706 37.08965301513672 35.99919092655182 33.49985897541046 35.99919092655182 C 29.90995466709137 35.99919092655182 26.9998562335968 33.31287467479706 26.9998562335968 29.999282956123352 C 26.9998562335968 26.685238003730774 29.90995466709137 23.99914836883545 33.49985897541046 23.99914836883545 C 35.24982154369354 23.99914836883545 36.83129370212555 24.64500641822815 37.999809980392456 25.683364868164062 C 37.999809980392456 25.683364868164062 37.999809980392456 1.9996368885040283 37.999809980392456 1.9996368885040283 C 37.999809980392456 1.9996368885040283 39.999971985816956 1.9996368885040283 39.999971985816956 1.9996368885040283 Z M 33.49985897541046 25.999268770217896 C 31.014515161514282 25.999268770217896 28.999797701835632 27.789995193481445 28.999797701835632 29.999282956123352 C 28.999797701835632 32.20811748504639 31.014515161514282 33.99907052516937 33.49985897541046 33.99907052516937 C 35.985092520713806 33.99907052516937 37.999809980392456 32.20811748504639 37.999809980392456 29.999282956123352 C 37.999809980392456 27.789995193481445 35.985092520713806 25.999268770217896 33.49985897541046 25.999268770217896 Z M 7.999916076660156 17.999693632125854 C 7.999916076660156 17.999693632125854 31.999985575675964 17.999693632125854 31.999985575675964 17.999693632125854 C 31.999985575675964 17.999693632125854 31.999985575675964 19.9998140335083 31.999985575675964 19.9998140335083 C 31.999985575675964 19.9998140335083 7.999916076660156 19.9998140335083 7.999916076660156 19.9998140335083 C 7.999916076660156 19.9998140335083 7.999916076660156 17.999693632125854 7.999916076660156 17.999693632125854 Z M 7.999916076660156 9.999891877174377 C 7.999916076660156 9.999891877174377 31.999985575675964 9.999891877174377 31.999985575675964 9.999891877174377 C 31.999985575675964 9.999891877174377 31.999985575675964 11.999785661697388 31.999985575675964 11.999785661697388 C 31.999985575675964 11.999785661697388 7.999916076660156 11.999785661697388 7.999916076660156 11.999785661697388 C 7.999916076660156 11.999785661697388 7.999916076660156 9.999891877174377 7.999916076660156 9.999891877174377 Z M 7.999916076660156 1.9996368885040283 C 7.999916076660156 1.9996368885040283 31.999985575675964 1.9996368885040283 31.999985575675964 1.9996368885040283 C 31.999985575675964 1.9996368885040283 31.999985575675964 3.9995306730270386 31.999985575675964 3.9995306730270386 C 31.999985575675964 3.9995306730270386 7.999916076660156 3.9995306730270386 7.999916076660156 3.9995306730270386 C 7.999916076660156 3.9995306730270386 7.999916076660156 1.9996368885040283 7.999916076660156 1.9996368885040283 Z M 1.99998140335083 33.99975037574768 C 1.99998140335083 33.99975037574768 4.999948740005493 33.99975037574768 4.999948740005493 33.99975037574768 C 4.999948740005493 33.99975037574768 4.999948740005493 35.99964416027069 4.999948740005493 35.99964416027069 C 4.999948740005493 35.99964416027069 1.99998140335083 35.99964416027069 1.99998140335083 35.99964416027069 C 1.99998140335083 35.99964416027069 1.99998140335083 33.99975037574768 1.99998140335083 33.99975037574768 Z M 1.99998140335083 25.999722003936768 C 1.99998140335083 25.999722003936768 4.999948740005493 25.999722003936768 4.999948740005493 25.999722003936768 C 4.999948740005493 25.999722003936768 4.999948740005493 27.999615788459778 4.999948740005493 27.999615788459778 C 4.999948740005493 27.999615788459778 1.99998140335083 27.999615788459778 1.99998140335083 27.999615788459778 C 1.99998140335083 27.999615788459778 1.99998140335083 25.999722003936768 1.99998140335083 25.999722003936768 Z M 1.99998140335083 17.999693632125854 C 1.99998140335083 17.999693632125854 4.999948740005493 17.999693632125854 4.999948740005493 17.999693632125854 C 4.999948740005493 17.999693632125854 4.999948740005493 19.9998140335083 4.999948740005493 19.9998140335083 C 4.999948740005493 19.9998140335083 1.99998140335083 19.9998140335083 1.99998140335083 19.9998140335083 C 1.99998140335083 19.9998140335083 1.99998140335083 17.999693632125854 1.99998140335083 17.999693632125854 Z M 1.99998140335083 9.999891877174377 C 1.99998140335083 9.999891877174377 4.999948740005493 9.999891877174377 4.999948740005493 9.999891877174377 C 4.999948740005493 9.999891877174377 4.999948740005493 11.999785661697388 4.999948740005493 11.999785661697388 C 4.999948740005493 11.999785661697388 1.99998140335083 11.999785661697388 1.99998140335083 11.999785661697388 C 1.99998140335083 11.999785661697388 1.99998140335083 9.999891877174377 1.99998140335083 9.999891877174377 Z M 1.99998140335083 1.9996368885040283 C 1.99998140335083 1.9996368885040283 4.999948740005493 1.9996368885040283 4.999948740005493 1.9996368885040283 C 4.999948740005493 1.9996368885040283 4.999948740005493 3.9995306730270386 4.999948740005493 3.9995306730270386 C 4.999948740005493 3.9995306730270386 1.99998140335083 3.9995306730270386 1.99998140335083 3.9995306730270386 C 1.99998140335083 3.9995306730270386 1.99998140335083 1.9996368885040283 1.99998140335083 1.9996368885040283 Z M 21.999947428703308 27.999615788459778 C 21.999947428703308 27.999615788459778 7.999916076660156 27.999615788459778 7.999916076660156 27.999615788459778 C 7.999916076660156 27.999615788459778 7.999916076660156 25.999722003936768 7.999916076660156 25.999722003936768 C 7.999916076660156 25.999722003936768 21.999947428703308 25.999722003936768 21.999947428703308 25.999722003936768 C 21.999947428703308 25.999722003936768 21.999947428703308 27.999615788459778 21.999947428703308 27.999615788459778 Z M 21.999947428703308 35.99964416027069 C 21.999947428703308 35.99964416027069 7.999916076660156 35.99964416027069 7.999916076660156 35.99964416027069 C 7.999916076660156 35.99964416027069 7.999916076660156 33.99975037574768 7.999916076660156 33.99975037574768 C 7.999916076660156 33.99975037574768 21.999947428703308 33.99975037574768 21.999947428703308 33.99975037574768 C 21.999947428703308 33.99975037574768 21.999947428703308 35.99964416027069 21.999947428703308 35.99964416027069 Z"/></g></svg>